<svg xmlns="http://www.w3.org/2000/svg" width="42.63" height="54.66" viewBox="0 0 42.63 54.66">
	<style type="text/css">
		.st0{fill:#464443;}
	</style>
	<path class="st0" d="M16.04,54.54C17.64,54.61 19.39,54.66 21.32,54.66C23.24,54.66 24.99,54.61 26.59,54.54L26.59,19.6C24.99,19.53 23.24,19.49 21.32,19.49C19.39,19.49 17.64,19.53 16.04,19.6Z"/>
	<path class="st0" d="M38.25,20.93C38.25,20.93 35.12,20.14 28.93,19.73L28.93,54.42C35.12,54.01 38.25,53.21 38.25,53.21C40.67,53.21 42.63,51.26 42.63,48.84L42.63,25.31C42.63,22.89 40.67,20.93 38.25,20.93M0,25.31L0,48.84C0,51.26 1.96,53.21 4.37,53.21C4.37,53.21 7.51,54.01 13.69,54.42L13.69,19.73C7.51,20.14 4.37,20.93 4.37,20.93C1.96,20.93 0,22.89 0,25.31"/>
	<path class="st0" d="M8.82,11.97C8.28,10.34 12.28,6.14 13.77,6.71C15.26,7.27 16.58,15.2 16.58,15.2L13.24,15.47C13.24,15.47 9.37,13.61 8.82,11.97M13.97,0.1C10.92,-1.04 2.76,7.51 3.87,10.85C4.98,14.19 12.88,17.99 12.88,17.99L19.7,17.43C19.7,17.43 17.02,1.25 13.97,0.1"/>
	<path class="st0" d="M29.39,15.47L26.05,15.2C26.05,15.2 27.36,7.27 28.86,6.71C30.35,6.14 34.35,10.34 33.8,11.97C33.26,13.61 29.39,15.47 29.39,15.47M22.93,17.43L29.75,17.99C29.75,17.99 37.64,14.19 38.75,10.85C39.87,7.51 31.71,-1.04 28.66,0.1C25.61,1.25 22.93,17.43 22.93,17.43"/>
</svg>